<svg width="40" height="31" viewBox="0 0 40 31" fill="none" xmlns="http://www.w3.org/2000/svg">
<path d="M13 10.6875C13.2242 10.6875 13.4062 10.8695 13.4062 11.0938C13.4062 11.318 13.2234 11.5 13 11.5C8.67181 11.5 4.875 13.7782 4.875 16.375C4.875 16.5992 4.693 16.7812 4.46875 16.7812C4.2445 16.7812 4.0625 16.5992 4.0625 16.375C4.0625 13.2924 8.15506 10.6875 13 10.6875ZM13 6.625C5.81994 6.625 0 10.9906 0 16.375C0 19.7282 2.25794 22.6849 5.694 24.4399C5.694 24.4618 5.6875 24.4764 5.6875 24.5C5.6875 25.9568 4.59956 27.5249 4.121 28.348C4.12181 28.348 4.12262 28.348 4.12262 28.348C4.08444 28.4374 4.0625 28.5357 4.0625 28.6389C4.0625 29.0451 4.39156 29.375 4.79862 29.375C4.875 29.375 5.00906 29.3547 5.00581 29.3636C7.54487 28.9476 9.93687 26.6149 10.4926 25.9389C11.3043 26.0584 12.1412 26.125 13 26.125C20.1784 26.125 26 21.7594 26 16.375C26 10.9906 20.1793 6.625 13 6.625ZM13 24.5C12.2549 24.5 11.4904 24.4431 10.7283 24.3318C10.6494 24.3188 10.5706 24.3147 10.4926 24.3147C10.01 24.3147 9.54769 24.5293 9.2365 24.9079C8.88875 25.3312 7.89913 26.2761 6.72994 26.9708C7.04681 26.2436 7.29462 25.4287 7.31169 24.5886C7.31656 24.5366 7.319 24.4837 7.319 24.4391C7.319 23.8281 6.97694 23.2699 6.43338 22.992C3.42225 21.4547 1.625 18.9807 1.625 16.375C1.625 11.8949 6.7275 8.25 13 8.25C19.2709 8.25 24.375 11.8949 24.375 16.375C24.375 20.8551 19.2717 24.5 13 24.5Z" fill="#4F4F4F"/>
<rect x="20" width="20" height="20" rx="10" fill="#EA5455"/>
<path d="M25.264 14.5V6.82L26.104 7.66H23.584V6.1H27.208V14.5H25.264ZM32.2672 14.644C31.5792 14.644 30.9632 14.476 30.4192 14.14C29.8752 13.796 29.4472 13.3 29.1352 12.652C28.8232 12.004 28.6672 11.22 28.6672 10.3C28.6672 9.38 28.8232 8.596 29.1352 7.948C29.4472 7.3 29.8752 6.808 30.4192 6.472C30.9632 6.128 31.5792 5.956 32.2672 5.956C32.9632 5.956 33.5792 6.128 34.1152 6.472C34.6592 6.808 35.0872 7.3 35.3992 7.948C35.7112 8.596 35.8672 9.38 35.8672 10.3C35.8672 11.22 35.7112 12.004 35.3992 12.652C35.0872 13.3 34.6592 13.796 34.1152 14.14C33.5792 14.476 32.9632 14.644 32.2672 14.644ZM32.2672 13C32.5952 13 32.8792 12.908 33.1192 12.724C33.3672 12.54 33.5592 12.248 33.6952 11.848C33.8392 11.448 33.9112 10.932 33.9112 10.3C33.9112 9.668 33.8392 9.152 33.6952 8.752C33.5592 8.352 33.3672 8.06 33.1192 7.876C32.8792 7.692 32.5952 7.6 32.2672 7.6C31.9472 7.6 31.6632 7.692 31.4152 7.876C31.1752 8.06 30.9832 8.352 30.8392 8.752C30.7032 9.152 30.6352 9.668 30.6352 10.3C30.6352 10.932 30.7032 11.448 30.8392 11.848C30.9832 12.248 31.1752 12.54 31.4152 12.724C31.6632 12.908 31.9472 13 32.2672 13Z" fill="white"/>
<path d="M23.5 16H36.3472V16.6H23.5V16Z" fill="white"/>
</svg>
