<svg width="40" height="31" viewBox="0 0 40 31" fill="none" xmlns="http://www.w3.org/2000/svg">
<path d="M22.75 9.0625H3.25C1.45519 9.0625 0 10.5185 0 12.3125V22.875C0 24.6698 1.45519 26.125 3.25 26.125H22.75C24.5448 26.125 26 24.6698 26 22.875V12.3125C26 10.5185 24.5448 9.0625 22.75 9.0625ZM1.625 13.3281L7.31169 17.5938L1.625 21.8594V13.3281V13.3281ZM24.375 22.875C24.375 23.772 23.6454 24.5 22.75 24.5H3.25C2.35381 24.5 1.625 23.772 1.625 22.875L7.9885 18.1016L11.5375 20.7641C11.9706 21.0875 12.4849 21.2516 13 21.2516C13.5143 21.2516 14.0286 21.0883 14.4617 20.7641L18.0115 18.1016L24.375 22.875ZM24.375 21.8594L18.6875 17.5938L24.375 13.3281V21.8594ZM13.9742 20.1141C13.6906 20.327 13.3542 20.4391 13 20.4391C12.6458 20.4391 12.3086 20.3262 12.025 20.1141L1.625 12.3125C1.625 11.4163 2.35381 10.6875 3.25 10.6875H22.75C23.6454 10.6875 24.375 11.4163 24.375 12.3125L13.9742 20.1141V20.1141Z" fill="#4F4F4F"/>
<rect x="20" width="20" height="20" rx="10" fill="#6FCF97"/>
<path d="M25.264 14.5V6.82L26.104 7.66H23.584V6.1H27.208V14.5H25.264ZM32.2672 14.644C31.5792 14.644 30.9632 14.476 30.4192 14.14C29.8752 13.796 29.4472 13.3 29.1352 12.652C28.8232 12.004 28.6672 11.22 28.6672 10.3C28.6672 9.38 28.8232 8.596 29.1352 7.948C29.4472 7.3 29.8752 6.808 30.4192 6.472C30.9632 6.128 31.5792 5.956 32.2672 5.956C32.9632 5.956 33.5792 6.128 34.1152 6.472C34.6592 6.808 35.0872 7.3 35.3992 7.948C35.7112 8.596 35.8672 9.38 35.8672 10.3C35.8672 11.22 35.7112 12.004 35.3992 12.652C35.0872 13.3 34.6592 13.796 34.1152 14.14C33.5792 14.476 32.9632 14.644 32.2672 14.644ZM32.2672 13C32.5952 13 32.8792 12.908 33.1192 12.724C33.3672 12.54 33.5592 12.248 33.6952 11.848C33.8392 11.448 33.9112 10.932 33.9112 10.3C33.9112 9.668 33.8392 9.152 33.6952 8.752C33.5592 8.352 33.3672 8.06 33.1192 7.876C32.8792 7.692 32.5952 7.6 32.2672 7.6C31.9472 7.6 31.6632 7.692 31.4152 7.876C31.1752 8.06 30.9832 8.352 30.8392 8.752C30.7032 9.152 30.6352 9.668 30.6352 10.3C30.6352 10.932 30.7032 11.448 30.8392 11.848C30.9832 12.248 31.1752 12.54 31.4152 12.724C31.6632 12.908 31.9472 13 32.2672 13Z" fill="#4F4F4F"/>
</svg>
