<svg width="40" height="31" viewBox="0 0 40 31" fill="none" xmlns="http://www.w3.org/2000/svg">
<g clip-path="url(#clip0_6329_54)">
<path d="M23.8339 7.4375H20.3125V5.8125C20.3125 5.36319 19.9493 5 19.5 5C19.0507 5 18.6875 5.36319 18.6875 5.8125V7.4375H13.8125V5.8125C13.8125 5.36319 13.4485 5 13 5C12.5515 5 12.1875 5.36319 12.1875 5.8125V7.4375H7.3125V5.8125C7.3125 5.36319 6.9485 5 6.5 5C6.0515 5 5.6875 5.36319 5.6875 5.8125V7.4375H2.16694C0.970125 7.4375 0 8.40681 0 9.60362V28.8331C0 30.0299 0.970125 31 2.16694 31H23.8339C25.0307 31 26 30.0299 26 28.8331V9.60362C26 8.40681 25.0307 7.4375 23.8339 7.4375ZM24.375 28.8331C24.375 29.1321 24.1321 29.375 23.8339 29.375H2.16694C1.86794 29.375 1.625 29.1321 1.625 28.8331V9.60362C1.625 9.30544 1.86794 9.0625 2.16694 9.0625H5.6875V10.6875C5.6875 11.1368 6.0515 11.5 6.5 11.5C6.9485 11.5 7.3125 11.1368 7.3125 10.6875V9.0625H12.1875V10.6875C12.1875 11.1368 12.5515 11.5 13 11.5C13.4485 11.5 13.8125 11.1368 13.8125 10.6875V9.0625H18.6875V10.6875C18.6875 11.1368 19.0507 11.5 19.5 11.5C19.9493 11.5 20.3125 11.1368 20.3125 10.6875V9.0625H23.8339C24.1321 9.0625 24.375 9.30544 24.375 9.60362V28.8331ZM5.6875 14.75H8.9375V17.1875H5.6875V14.75ZM5.6875 18.8125H8.9375V21.25H5.6875V18.8125ZM5.6875 22.875H8.9375V25.3125H5.6875V22.875ZM11.375 22.875H14.625V25.3125H11.375V22.875ZM11.375 18.8125H14.625V21.25H11.375V18.8125ZM11.375 14.75H14.625V17.1875H11.375V14.75ZM17.0625 22.875H20.3125V25.3125H17.0625V22.875ZM17.0625 18.8125H20.3125V21.25H17.0625V18.8125ZM17.0625 14.75H20.3125V17.1875H17.0625V14.75Z" fill="#4f4f4f"/>
</g>
<rect x="20" width="20" height="20" rx="10" fill="#F2C94C"/>
<path d="M29.324 14.644C28.74 14.644 28.16 14.568 27.584 14.416C27.016 14.256 26.528 14.032 26.12 13.744L26.888 12.256C27.208 12.488 27.576 12.672 27.992 12.808C28.416 12.944 28.844 13.012 29.276 13.012C29.764 13.012 30.148 12.916 30.428 12.724C30.708 12.532 30.848 12.264 30.848 11.92C30.848 11.704 30.792 11.512 30.68 11.344C30.568 11.176 30.368 11.048 30.08 10.96C29.8 10.872 29.404 10.828 28.892 10.828H26.744L27.176 6.1H32.3V7.66H27.872L28.88 6.772L28.58 10.144L27.572 9.256H29.348C30.18 9.256 30.848 9.372 31.352 9.604C31.864 9.828 32.236 10.136 32.468 10.528C32.7 10.92 32.816 11.364 32.816 11.86C32.816 12.356 32.692 12.816 32.444 13.24C32.196 13.656 31.812 13.996 31.292 14.26C30.78 14.516 30.124 14.644 29.324 14.644Z" fill="#4F4F4F"/>
<defs>
<clipPath id="clip0_6329_54">
<rect width="26" height="26" fill="white" transform="translate(0 5)"/>
</clipPath>
</defs>
</svg>
